<svg width="64" height="64" viewBox="0 0 64 64" fill="none" xmlns="http://www.w3.org/2000/svg">
<rect width="64" height="64" rx="32" fill="url(#paint0_linear_7592_3690)"/>
<path d="M33.3337 26.668V37.3346C33.3337 39.5438 31.5429 41.3346 29.3337 41.3346H26.4394C25.8903 42.8882 24.4086 44.0013 22.667 44.0013C20.4579 44.0013 18.667 42.2105 18.667 40.0013C18.667 37.7921 20.4579 36.0013 22.667 36.0013C24.4086 36.0013 25.8903 37.1144 26.4394 38.668H29.3337C30.0701 38.668 30.667 38.071 30.667 37.3346V26.668C30.667 24.4588 32.4578 22.668 34.667 22.668H38.667V18.668L45.3337 24.0013L38.667 29.3346V25.3346H34.667C33.9306 25.3346 33.3337 25.9316 33.3337 26.668Z" fill="white"/>
<defs>
<linearGradient id="paint0_linear_7592_3690" x1="32" y1="0" x2="32" y2="64" gradientUnits="userSpaceOnUse">
<stop stop-color="#053373"/>
<stop offset="1" stop-color="#0A67E6"/>
</linearGradient>
</defs>
</svg>
